PathFileType	4	(X/Y/Z)	C:/Users/beibeiliu/ov580/test_trc/User3\sequence.46_training_dense_left.trc
DataRate	CameraRate	NumFrames	NumMarkers	Units	OrigDataRate	OrigDataStartFrame	OrigNumFrames
120	120	21	19	mm	120	1	58
Frame#	Time	ThumbCMC			ThumbMCP			ThumbIP			ThumbTip			IndexMCP			IndexPIP			IndexTip			MiddleMCP			MiddlePIP			MiddleTip			RingMCP			RingPIP			RingTip			PinkyMCP			PinkyPIP			PinkyTip			BackHand1			BackHand2			BackHand3	
		X0	Y0	Z0	X1	Y1	Z1	X2	Y2	Z2	X3	Y3	Z3	X4	Y4	Z4	X5	Y5	Z5	X6	Y6	Z6	X7	Y7	Z7	X8	Y8	Z8	X9	Y9	Z9	X10	Y10	Z10	X11	Y11	Z11	X12	Y12	Z12	X13	Y13	Z13	X14	Y14	Z14	X15	Y15	Z15	X16	Y16	Z16	X17	Y17	Z17	X18	Y18	Z18	
0	0	-58.4319	-3.35157	51.4971	-39.7945	-10.443	31.4304	-18.433	-14.7768	9.95476	-5.03876	-21.7243	-10.4721	-81.3729	6.27663	-24.9769	-72.9718	4.15272	-50.243	-67.5604	0.305972	-80.3685	-107.089	8.28199	-30.0754	-109.346	6.11739	-58.608	-112.043	-2.53866	-89.5754	-127.511	0.741588	-22.6917	-133.957	-1.38821	-43.2294	-141.956	-9.11468	-68.464	-149.385	-9.30888	-3.42328	-157.324	-14.3039	-19.7329	-164.566	-20.1377	-43.013	-122.046	14.2309	27.2807	-120.621	16.0458	62.2068	-89.4505	17.1228	39.7225	
1	0.00833333	-61.7829	-1.08456	47.8498	-40.7825	-6.23983	28.5798	-25.4767	-12.3459	6.66709	-7.97974	-18.7474	-12.1618	-84.0084	10.1881	-27.8205	-76.8215	8.53451	-56.0298	-72.2939	3.26375	-82.8919	-108.9	11.4728	-33.922	-110.498	9.37674	-57.3577	-114.666	0.632678	-90.7172	-133.664	3.84235	-21.1302	-135.11	0.873948	-44.8682	-144.371	-6.91129	-74.6258	-147.799	-6.37778	-1.14831	-161.25	-11.5733	-25.5355	-169.447	-15.9168	-42.5033	-125.846	15.6868	30.3071	-121.948	19.5748	58.3937	-90.8028	19.1996	36.8595	
2	0.0166667	-63.3674	-0.374843	49.6715	-44.3883	-5.41699	30.7838	-22.8942	-10.4481	4.13491	-12.4739	-17.0394	-9.19536	-80.0556	11.631	-31.0678	-78.531	9.95865	-53.8313	-70.0525	6.27557	-78.5618	-112.311	13.6254	-30.3962	-112.285	10.9618	-58.4773	-112.771	3.81337	-89.4119	-129.544	5.95121	-20.1068	-137.565	1.67978	-49.2201	-146.227	-5.50684	-73.5083	-150.897	-3.69631	-2.34602	-161.95	-9.77691	-23.5507	-168.589	-15.9228	-43.1092	-127.912	17.8647	29.7999	-122.681	19.2229	58.0568	-93.4176	20.2769	39.9099	
3	0.025	-60.7927	0.852078	45.6039	-45.1655	-5.20228	28.095	-25.3923	-10.078	6.26582	-12.1315	-16.3968	-7.23253	-83.5158	11.8158	-30.0753	-74.7984	10.7995	-56.2509	-76.2993	6.97945	-77.245	-110.405	13.7438	-28.6494	-113.411	11.269	-59.9782	-116.126	3.81074	-89.2775	-130.135	6.42672	-22.2097	-138.611	2.3784	-47.3313	-143.449	-3.65346	-68.9377	-146.576	-4.24868	-1.64248	-158.255	-7.71692	-23.9658	-169.807	-13.3882	-42.8001	-127.013	16.7829	27.2425	-127.236	19.1756	57.9663	-92.8944	20.889	37.3843	
4	0.0333333	-64.8368	-0.0368228	50.1227	-43.2749	-4.42055	27.4898	-22.4286	-9.05746	9.20326	-8.66583	-15.2409	-7.50503	-80.7693	12.3269	-25.7636	-76.6069	11.3645	-50.5454	-71.5136	8.25435	-75.8134	-108.667	14.8782	-33.7024	-110.774	10.0477	-61.6182	-113.357	4.26181	-87.2867	-134.325	4.68845	-19.812	-137.434	2.22935	-48.2109	-145.796	-6.35254	-71.9344	-152.172	-5.40018	-2.03528	-156.44	-8.69272	-22.0987	-169.647	-14.4298	-42.23	-127.633	18.2095	28.7542	-121.681	20.1226	56.6686	-93.486	19.9529	38.2051	
5	0.0416667	-64.6545	-0.202606	47.1586	-44.7237	-4.56631	29.4252	-24.7182	-9.1055	6.26438	-8.48681	-15.3796	-7.47321	-80.5322	11.2482	-23.571	-79.8096	9.73637	-53.8259	-72.9057	6.82775	-75.0008	-113.045	12.4337	-31.3515	-111.837	9.85355	-57.8357	-117.121	2.02167	-86.9241	-135.227	3.85887	-18.8458	-140.726	0.57572	-46.2396	-147.119	-6.51066	-67.7121	-150.263	-4.99353	-1.28612	-156.669	-9.41105	-19.3207	-169.426	-17.5996	-40.2427	-124.29	17.2758	32.7574	-124.235	18.2923	59.9456	-90.5165	19.4169	40.2159	
6	0.05	-62.5233	3.47327	48.1013	-42.3515	-1.45056	29.4704	-26.6391	-8.24468	10.7828	-11.9629	-13.0503	-6.80311	-84.9751	14.7256	-28.1594	-77.0928	12.8778	-49.2314	-75.8267	8.98418	-75.2332	-114.68	15.4422	-30.9839	-112.21	13.0544	-55.0683	-116.2	4.88945	-88.6883	-130.691	6.86029	-16.9136	-139.407	3.22887	-42.9849	-144.743	-3.71806	-71.6607	-152.885	-3.72601	-0.311345	-160.967	-9.16689	-23.2722	-170.064	-15.8079	-41.3601	-123.627	17.6397	33.6027	-126.033	20.5151	62.5089	-94.3024	23.5826	42.5903	
7	0.0583333	-64.6357	3.18857	53.8164	-45.422	-2.65968	33.3469	-24.3282	-6.19519	8.91692	-10.2138	-12.2973	-4.63666	-85.5561	15.2816	-25.7167	-77.8785	12.5276	-52.8546	-78.2457	9.68001	-74.3376	-114.372	15.4833	-29.7912	-114.805	12.6416	-54.8337	-114.255	3.54476	-90.4727	-132.377	7.1125	-17.2097	-143.262	2.60234	-42.0894	-147.796	-4.25768	-66.6126	-154.719	-2.91486	-1.77546	-160.41	-8.23937	-19.4292	-170.728	-17.1906	-43.6195	-130.861	17.1445	35.3425	-128.014	19.7831	61.6589	-93.4239	24.3036	42.4545	
8	0.0666667	-65.9836	3.23609	51.2792	-47.1165	-2.13856	30.6581	-29.8388	-6.76901	10.0251	-12.6581	-11.3889	-8.32259	-86.6683	15.8132	-22.9338	-80.1944	13.8822	-52.9893	-73.6714	9.56027	-77.7665	-114.516	16.5561	-25.877	-118.589	12.9592	-57.5501	-117.074	4.58874	-87.0802	-135.773	7.49733	-17.9047	-143.536	3.57399	-41.262	-145.785	-3.97529	-69.3426	-154.573	-3.51657	3.30827	-160.905	-7.6494	-17.8301	-171.914	-15.7961	-40.968	-129.659	17.1449	33.8705	-129.498	19.1327	65.255	-96.3695	22.4694	44.1462	
9	0.075	-68.3029	2.61142	53.0331	-43.5699	-1.63636	32.2334	-25.5887	-5.6264	13.1097	-15.5306	-13.1641	-5.05707	-85.8236	15.6256	-23.8446	-83.2346	14.6105	-48.0954	-77.9662	11.4714	-74.9505	-113.725	17.1662	-28.0259	-114.667	14.4996	-55.4769	-116.668	5.53908	-85.3376	-133.055	8.68802	-19.155	-144.308	4.80459	-39.3542	-147.14	-3.78501	-67.0217	-150.207	-2.85611	3.19462	-162.792	-7.90733	-19.8616	-169.95	-14.6335	-40.2534	-132.597	17.3634	35.3136	-129.835	19.8514	61.6297	-95.5382	22.7557	45.0973	
10	0.0833333	-65.3919	4.98245	49.7833	-45.2677	-0.689851	31.0863	-26.4929	-5.70252	9.19811	-11.741	-11.1411	-8.11889	-87.9783	17.1817	-25.8771	-80.2292	16.2425	-50.0004	-78.336	12.1608	-78.2376	-114.966	18.8895	-30.1982	-115.23	15.6368	-55.0421	-120.293	6.78426	-85.4492	-138.505	8.30482	-16.7697	-143.415	6.07695	-40.505	-146.652	-1.70827	-69.3165	-150.121	-1.43894	2.19091	-161.976	-5.2561	-20.0727	-169.744	-12.827	-40.1742	-131.746	18.8023	35.1591	-128.339	19.969	60.1065	-97.1338	24.8303	43.4348	
11	0.0916667	-68.4386	2.95717	51.0457	-43.2576	-1.1662	31.162	-25.9462	-6.02133	8.56551	-17.2457	-13.3252	-10.235	-87.4376	19.7042	-26.558	-81.5685	18.8527	-53.1022	-80.3388	15.6749	-75.3372	-115.517	20.56	-27.2885	-118.972	18.4884	-57.0153	-120.542	9.54875	-89.6218	-137.436	9.75703	-15.2677	-141.062	7.53902	-40.7981	-149.349	-0.204893	-65.6803	-151.041	0.759197	-3.26703	-159.938	-4.36485	-18.7072	-172.941	-12.4781	-41.43	-132.06	21.2218	33.3878	-130.191	20.9872	62.6048	-94.2516	23.7231	41.036	
12	0.1	-69.1978	3.90501	45.8167	-50.0568	-4.47315	26.6306	-28.6061	-9.82765	4.82294	-18.5049	-16.1513	-14.3985	-88.4227	23.8264	-26.6871	-82.0232	24.308	-51.5552	-81.6714	21.5813	-74.1196	-115.659	24.0331	-28.3605	-120.793	22.1581	-57.4719	-123.854	15.6258	-85.0405	-140.628	12.3425	-15.7409	-142.397	9.87049	-43.7212	-150.315	0.923902	-67.0029	-154.386	0.125241	2.11163	-162.408	-3.99816	-17.5491	-171.918	-11.1862	-42.8998	-128.513	20.256	32.3232	-127.236	19.6925	65.4458	-96.5371	23.558	44.4039	
13	0.108333	-68.5441	1.51292	48.4862	-48.5796	-5.10633	22.951	-34.75	-11.1851	-2.40851	-28.0088	-19.8735	-22.8314	-96.0089	27.3015	-21.6737	-89.6162	31.1213	-47.4728	-87.483	28.514	-77.1191	-121.286	29.1611	-27.1822	-123.363	28.3967	-55.1667	-126.223	22.1488	-83.3471	-141.207	15.5852	-16.5882	-147.12	12.6032	-38.6321	-152.234	2.77443	-64.7021	-154.773	3.06399	-1.87595	-165.933	-5.05938	-22.4055	-170.786	-12.8216	-42.7898	-131.37	19.9492	34.4251	-129.022	19.9402	64.9472	-98.1107	25.8634	48.0557	
14	0.116667	-71.6896	2.03792	46.5827	-55.1019	-6.10083	23.422	-42.4241	-12.9553	-4.11288	-41.1206	-21.1543	-26.565	-103.795	28.8986	-23.5592	-99.9605	32.3183	-48.3695	-97.1941	30.5148	-75.6094	-127.2	27.8399	-22.3748	-131.067	29.3688	-52.0525	-137.599	20.9345	-86.6908	-146.688	12.7961	-14.7306	-154.05	8.74014	-40.6204	-155.771	-3.61247	-63.7418	-163.512	-2.94912	-0.334939	-170.082	-9.56145	-18.8099	-172.688	-25.5749	-44.6478	-140.575	16.1716	39.3648	-133.199	12.7788	64.9362	-105.748	23.2263	46.391	
15	0.125	-85.8338	2.79213	44.102	-71.7079	-3.43793	16.3136	-60.5162	-7.53517	-13.8208	-57.2599	-17.6799	-31.3058	-123.555	26.7319	-20.5451	-121.063	32.7235	-47.7185	-124.87	30.4016	-77.1437	-150.936	18.8014	-18.3517	-153.995	21.5001	-52.9498	-156.71	11.3371	-81.81	-162.517	-0.974424	-11.7649	-165.194	-7.29396	-39.4237	-162.1	-27.4827	-61.8259	-173.122	-20.53	0.94979	-172.896	-29.2957	-21.7045	-162.67	-47.7193	-41.1853	-153.914	3.74888	37.5728	-147.382	1.24051	67.3285	-122.763	20.8562	44.9412	
16	0.133333	-108.82	8.41026	42.7027	-95.7337	5.57264	9.08089	-87.3098	2.52706	-15.9998	-84.1941	-5.60381	-40.8838	-159.085	12.8889	-16.0475	-165.223	17.6369	-46.9738	-167.361	18.4054	-71.2667	-178.697	-8.34151	-14.4135	-186.276	-11.107	-47.4807	-180.531	-23.5003	-77.3247	-175.405	-28.1259	-12.3334	-173.444	-43.5979	-39.047	-150.511	-62.1593	-54.1811	-175.21	-49.517	0.728759	-167.126	-59.8613	-19.1242	-143.123	-71.0838	-27.6449	-171.133	-19.7077	44.8867	-163.745	-16.8793	68.4381	-151.585	7.72845	45.9776	
17	0.141667	-123.368	8.94632	39.0278	-111.369	5.4825	12.0448	-103.387	5.99928	-16.7733	-98.0751	1.70169	-41.5835	-175.469	5.09539	-12.8198	-187.259	7.37509	-42.851	-189.998	8.15258	-67.1585	-191.525	-23.6142	-17.1547	-193.387	-29.0079	-46.3971	-177.009	-48.2544	-76.0973	-179.434	-48.4214	-11.0835	-167.693	-61.6145	-33.7426	-134.768	-67.3202	-40.4652	-171.705	-62.9745	3.94732	-152.505	-74.7867	-15.1704	-128.383	-75.9227	-14.4107	-179.095	-30.923	43.6694	-170.175	-30.3587	70.4183	-163.995	-2.84099	49.0829	
18	0.15	-127.565	14.8063	38.8854	-117.075	12.5695	13.5429	-109.421	17.1638	-19.9098	-106.912	10.5478	-39.8778	-178.679	5.79053	-11.171	-190.696	11.4237	-40.6352	-189.928	5.47122	-68.8851	-187.766	-21.3847	-17.1587	-182.326	-33.9389	-51.6684	-156.257	-45.6904	-66.3537	-173.207	-45.5875	-10.925	-151.906	-59.6969	-32.292	-117.602	-59.9648	-26.5662	-165.529	-61.6019	2.44114	-141.732	-66.1006	-13.8411	-117.907	-63.4663	-7.47097	-177.476	-29.244	44.155	-169.881	-28.6214	73.1424	-163.853	-2.12099	49.9245	
19	0.158333	-125.626	18.1921	42.7561	-113.682	23.9139	14.1526	-108.509	25.9601	-14.6492	-104.481	21.6735	-38.9528	-178.235	13.4337	-15.9647	-181.186	17.2225	-43.993	-163.715	6.75649	-69.936	-180.695	-11.6414	-25.0772	-164.447	-17.3576	-53.143	-131.103	-32.5365	-51.069	-168.488	-37.4005	-17.8648	-147.111	-44.8936	-33.7055	-113.924	-45.7325	-19.4521	-165.371	-53.3332	-0.570367	-142.315	-59.2832	-17.1435	-115.949	-55.4797	-4.05579	-178.99	-22.5199	39.7057	-165.733	-22.888	71.0346	-160.995	9.94514	49.8636	
20	0.166667	-123.027	19.6054	48.2835	-111.149	29.015	15.1614	-105.405	31.6164	-14.5512	-103.999	20.0609	-38.7399	-167.876	20.6349	-15.4729	-160.505	17.7376	-50.8094	-130.525	4.36906	-55.381	-175.291	-3.44829	-23.7556	-155.655	-6.84114	-51.6049	-122.313	-21.1438	-33.9817	-170.197	-25.1051	-17.6883	-145.116	-36.184	-37.2127	-119.895	-34.0604	-18.7304	-167.742	-43.0973	-5.17872	-147.072	-49.4277	-22.9562	-121.168	-45.3428	-10.1076	-175.557	-17.6327	37.8843	-167.776	-19.7526	65.133	-162.023	10.4812	47.7659	
